<svg xmlns="http://www.w3.org/2000/svg" viewBox="0 0 240 240" role="img" aria-label="Nohchicho">
  <circle cx="120" cy="120" r="120" fill="#0b2b26"/>
  <!-- three stars across the top for brand cue -->
  <g fill="#e9c349">
    <path d="M120,30 l3,9 9.5,0 -7.7,5.6 3,9 -7.8,-5.7 -7.8,5.7 3,-9 -7.7,-5.6 9.5,0 Z"/>
    <path d="M74,44 l2.4,7.2 7.6,0 -6.2,4.5 2.4,7.2 -6.2,-4.6 -6.2,4.6 2.4,-7.2 -6.2,-4.5 7.6,0 Z"/>
    <path d="M166,44 l2.4,7.2 7.6,0 -6.2,4.5 2.4,7.2 -6.2,-4.6 -6.2,4.6 2.4,-7.2 -6.2,-4.5 7.6,0 Z"/>
  </g>
  <!-- wolf, gold, enlarged and centered -->
  <g fill="#e9c349" transform="translate(120,138) scale(1.55) translate(-120,-138)">
    <path d="M46 121
             C 52 119, 58 117, 62 113
             L 60 96 L 70 109
             L 80 95 L 87 110
             C 92 112, 96 115, 99 119
             C 116 112, 138 111, 156 116
             C 159 110, 162 103, 161 96
             C 165 100, 168 106, 168 112
             C 174 114, 180 118, 184 124
             C 188 130, 188 137, 184 142
             C 182 145, 178 145, 176 142
             L 174 134
             L 172 145 L 172 173 L 164 173 L 165 145
             C 160 147, 154 148, 148 147
             L 132 146
             C 128 146, 124 146, 120 145
             L 120 173 L 112 173 L 113 143
             C 108 141, 104 138, 101 134
             L 100 145 L 100 173 L 92 173 L 93 143
             C 88 139, 85 133, 84 127
             C 78 127, 72 126, 67 123
             C 60 127, 52 128, 46 126
             C 44 125, 44 122, 46 121 Z"/>
  </g>
</svg>
